<?xml version="1.0" encoding="UTF-8"?>
<svg xmlns="http://www.w3.org/2000/svg" xmlns:xlink="http://www.w3.org/1999/xlink" viewBox="5 5 70 70" version="1.1">
<g id="surface1">
<path style="fill: #4285f4;" d="M 11 13 C 8.800781 13 7 14.800781 7 17 L 7 63 C 7 65.199219 8.800781 67 11 67 L 73 67 L 73 65 L 11 65 C 9.882813 65 9 64.117188 9 63 L 9 17 C 9 15.882813 9.882813 15 11 15 L 73 15 L 73 13 Z M 36 15 C 35.449219 15 35 15.449219 35 16 C 35 16.550781 35.449219 17 36 17 C 36.550781 17 37 16.550781 37 16 C 37 15.449219 36.550781 15 36 15 Z M 36 65 C 36.550781 65 37 64.550781 37 64 C 37 63.449219 36.550781 63 36 63 C 35.449219 63 35 63.449219 35 64 C 35 64.550781 35.449219 65 36 65 Z M 36 19 C 35.449219 19 35 19.449219 35 20 C 35 20.550781 35.449219 21 36 21 C 36.550781 21 37 20.550781 37 20 C 37 19.449219 36.550781 19 36 19 Z M 16 22 C 14.894531 22 14 22.894531 14 24 C 14 25.105469 14.894531 26 16 26 C 17.105469 26 18 25.105469 18 24 C 18 22.894531 17.105469 22 16 22 Z M 21 23 L 21 25 L 31 25 L 31 23 Z M 36 23 C 35.449219 23 35 23.449219 35 24 C 35 24.550781 35.449219 25 36 25 C 36.550781 25 37 24.550781 37 24 C 37 23.449219 36.550781 23 36 23 Z M 36 27 C 35.449219 27 35 27.449219 35 28 C 35 28.550781 35.449219 29 36 29 C 36.550781 29 37 28.550781 37 28 C 37 27.449219 36.550781 27 36 27 Z M 16 30 C 14.894531 30 14 30.894531 14 32 C 14 33.105469 14.894531 34 16 34 C 17.105469 34 18 33.105469 18 32 C 18 30.894531 17.105469 30 16 30 Z M 21 31 L 21 33 L 31 33 L 31 31 Z M 36 31 C 35.449219 31 35 31.449219 35 32 C 35 32.550781 35.449219 33 36 33 C 36.550781 33 37 32.550781 37 32 C 37 31.449219 36.550781 31 36 31 Z M 36 35 C 35.449219 35 35 35.449219 35 36 C 35 36.550781 35.449219 37 36 37 C 36.550781 37 37 36.550781 37 36 C 37 35.449219 36.550781 35 36 35 Z M 16 38 C 14.894531 38 14 38.894531 14 40 C 14 41.105469 14.894531 42 16 42 C 17.105469 42 18 41.105469 18 40 C 18 38.894531 17.105469 38 16 38 Z M 21 39 L 21 41 L 31 41 L 31 39 Z M 36 39 C 35.449219 39 35 39.449219 35 40 C 35 40.550781 35.449219 41 36 41 C 36.550781 41 37 40.550781 37 40 C 37 39.449219 36.550781 39 36 39 Z M 36 43 C 35.449219 43 35 43.449219 35 44 C 35 44.550781 35.449219 45 36 45 C 36.550781 45 37 44.550781 37 44 C 37 43.449219 36.550781 43 36 43 Z M 16 46 C 14.894531 46 14 46.894531 14 48 C 14 49.105469 14.894531 50 16 50 C 17.105469 50 18 49.105469 18 48 C 18 46.894531 17.105469 46 16 46 Z M 21 47 L 21 49 L 31 49 L 31 47 Z M 36 47 C 35.449219 47 35 47.449219 35 48 C 35 48.550781 35.449219 49 36 49 C 36.550781 49 37 48.550781 37 48 C 37 47.449219 36.550781 47 36 47 Z M 36 51 C 35.449219 51 35 51.449219 35 52 C 35 52.550781 35.449219 53 36 53 C 36.550781 53 37 52.550781 37 52 C 37 51.449219 36.550781 51 36 51 Z M 16 54 C 14.894531 54 14 54.894531 14 56 C 14 57.105469 14.894531 58 16 58 C 17.105469 58 18 57.105469 18 56 C 18 54.894531 17.105469 54 16 54 Z M 21 55 L 21 57 L 31 57 L 31 55 Z M 36 55 C 35.449219 55 35 55.449219 35 56 C 35 56.550781 35.449219 57 36 57 C 36.550781 57 37 56.550781 37 56 C 37 55.449219 36.550781 55 36 55 Z M 36 59 C 35.449219 59 35 59.449219 35 60 C 35 60.550781 35.449219 61 36 61 C 36.550781 61 37 60.550781 37 60 C 37 59.449219 36.550781 59 36 59 Z "></path>
</g>
</svg>
